# xmcd
#
# Track frame offsets:
#	150
#	18118
#	34486
#	54878
#	73679
#	92783
#	104094
#	123585
#	144870
#	168930
#	186140
#	204723
#
# Disc length: 3088 seconds
#
# Revision: 1
# Processed by: cddbd v1.5.1PL2 Copyright (c) Steve Scherf et al.
# Submitted via: audiograbber 1.81.03
#
DISCID=a70c0e0c
DTITLE=Shirley`Eikhard - Stay Open
DYEAR=2003
DGENRE=Jazz
TTITLE0=Take it to the Max
TTITLE1=Stay Open
TTITLE2=Coyote Highway
TTITLE3=Surrendering
TTITLE4=Style
TTITLE5=Waltz for Less
TTITLE6=How Low Can You Go
TTITLE7=Jake's Lament
TTITLE8=Aren't We Clever
TTITLE9=Seize the Moment
TTITLE10=Stay Open (Instrumental)
TTITLE11=The`Touch of Evil
EXTD=
EXTT0=
EXTT1=
EXTT2=
EXTT3=
EXTT4=
EXTT5=
EXTT6=
EXTT7=
EXTT8=
EXTT9=
EXTT10=
EXTT11=
PLAYORDER=
